<svg width="40" height="40" viewBox="0 0 40 40" fill="none" xmlns="http://www.w3.org/2000/svg">
<g id="akar-icons:linkedin-fill">
<path id="Vector" fill-rule="evenodd" clip-rule="evenodd" d="M15.7152 14.9485H21.9052V18.0318C22.7968 16.2585 25.0835 14.6652 28.5185 14.6652C35.1035 14.6652 36.6668 18.1952 36.6668 24.6718V36.6668H30.0002V26.1468C30.0002 22.4585 29.1085 20.3785 26.8385 20.3785C23.6902 20.3785 22.3818 22.6202 22.3818 26.1452V36.6668H15.7152V14.9485ZM4.2835 36.3835H10.9502V14.6652H4.2835V36.3835ZM11.9052 7.5835C11.9054 8.14229 11.7946 8.69556 11.5791 9.21114C11.3637 9.72673 11.0479 10.1944 10.6502 10.5868C9.84416 11.3879 8.75318 11.8363 7.61683 11.8335C6.48248 11.8327 5.39401 11.3855 4.58683 10.5885C4.19052 10.1947 3.87581 9.72654 3.66074 9.21088C3.44567 8.69523 3.33446 8.1422 3.3335 7.5835C3.3335 6.45516 3.7835 5.37516 4.5885 4.5785C5.39497 3.78043 6.4839 3.333 7.6185 3.3335C8.75516 3.3335 9.84516 3.78183 10.6502 4.5785C11.4535 5.37516 11.9052 6.45516 11.9052 7.5835Z" fill="#ED9E28"/>
</g>
</svg>
