<svg width="40" height="40" viewBox="0 0 40 40" fill="none" xmlns="http://www.w3.org/2000/svg">
<g id="cib:instagram" clip-path="url(#clip0_2857_270)">
<path id="Vector" d="M19.9994 0C14.5632 0 13.8857 0.02625 11.7582 0.11625C9.62195 0.22125 8.17695 0.5525 6.90195 1.0475C5.56753 1.55128 4.35903 2.34002 3.3607 3.35875C2.33913 4.35475 1.54995 5.56392 1.04945 6.9C0.554453 8.175 0.223203 9.62 0.118203 11.7562C0.0219531 13.885 0.00195312 14.5612 0.00195312 19.9975C0.00195312 25.4337 0.0282031 26.1112 0.118203 28.2387C0.223203 30.3687 0.554453 31.82 1.04945 33.095C1.55323 34.4294 2.34197 35.6379 3.3607 36.6362C4.3567 37.6578 5.56587 38.447 6.90195 38.9475C8.17695 39.4362 9.6282 39.7737 11.7582 39.8787C13.887 39.975 14.5632 39.995 19.9994 39.995C25.4357 39.995 26.1132 39.9687 28.2407 39.8787C30.3707 39.7737 31.8219 39.435 33.0969 38.9475C34.4314 38.4437 35.6399 37.655 36.6382 36.6362C37.6611 35.6413 38.4505 34.4319 38.9494 33.095C39.4382 31.82 39.7757 30.3687 39.8807 28.2387C39.9769 26.11 39.9969 25.4337 39.9969 19.9975C39.9969 14.5612 39.9707 13.8837 39.8807 11.7562C39.7757 9.62625 39.4369 8.1675 38.9494 6.9C38.4457 5.56558 37.6569 4.35708 36.6382 3.35875C35.6433 2.33586 34.4338 1.54647 33.0969 1.0475C31.8219 0.5525 30.3707 0.22125 28.2407 0.11625C26.1119 0.02 25.4357 0 19.9994 0ZM19.9994 3.6C25.3382 3.6 25.9757 3.62625 28.0857 3.71625C30.0319 3.8075 31.0919 4.1325 31.7957 4.4075C32.6657 4.72865 33.4532 5.23981 34.1007 5.90375C34.7635 6.54853 35.2727 7.33418 35.5907 8.2025C35.8657 8.90625 36.1907 9.96625 36.2819 11.9125C36.3719 14.0225 36.3982 14.6612 36.3982 19.9987C36.3982 25.3362 36.3719 25.975 36.2744 28.085C36.1694 30.0312 35.8444 31.0912 35.5707 31.795C35.1919 32.7337 34.7694 33.39 34.0719 34.1C33.4222 34.7598 32.6353 35.2685 31.7669 35.59C31.0719 35.865 29.9969 36.19 28.0432 36.2812C25.9219 36.3712 25.2969 36.3975 19.9445 36.3975C14.592 36.3975 13.9682 36.3712 11.8445 36.2737C9.8982 36.1687 8.82445 35.8437 8.1207 35.57C7.1707 35.1912 6.51945 34.7687 5.82195 34.0712C5.1182 33.3675 4.6707 32.6975 4.3257 31.7662C4.0457 31.0712 3.7257 29.9962 3.62195 28.0425C3.5507 25.9462 3.51695 25.2962 3.51695 19.9687C3.51695 14.6437 3.5507 13.9925 3.62195 11.87C3.7257 9.91625 4.0457 8.84375 4.3257 8.14625C4.6707 7.195 5.11945 6.545 5.82195 5.84125C6.5182 5.145 7.1707 4.695 8.1207 4.3425C8.82445 4.06875 9.87195 3.74375 11.8257 3.64625C13.947 3.57 14.572 3.5425 19.917 3.5425L19.9994 3.6ZM19.9994 9.73375C18.6511 9.73326 17.3159 9.99846 16.0701 10.5142C14.8244 11.03 13.6924 11.7862 12.739 12.7396C11.7856 13.693 11.0294 14.8249 10.5137 16.0707C9.99792 17.3165 9.73271 18.6517 9.7332 20C9.73271 21.3483 9.99792 22.6835 10.5137 23.9293C11.0294 25.1751 11.7856 26.307 12.739 27.2604C13.6924 28.2138 14.8244 28.97 16.0701 29.4858C17.3159 30.0015 18.6511 30.2667 19.9994 30.2662C21.3478 30.2667 22.683 30.0015 23.9288 29.4858C25.1745 28.97 26.3065 28.2138 27.2599 27.2604C28.2133 26.307 28.9695 25.1751 29.4852 23.9293C30.001 22.6835 30.2662 21.3483 30.2657 20C30.2662 18.6517 30.001 17.3165 29.4852 16.0707C28.9695 14.8249 28.2133 13.693 27.2599 12.7396C26.3065 11.7862 25.1745 11.03 23.9288 10.5142C22.683 9.99846 21.3478 9.73326 19.9994 9.73375ZM19.9994 26.6662C16.3144 26.6662 13.3332 23.685 13.3332 20C13.3332 16.315 16.3144 13.3337 19.9994 13.3337C23.6844 13.3337 26.6657 16.315 26.6657 20C26.6657 23.685 23.6844 26.6662 19.9994 26.6662ZM33.0794 9.32375C33.0788 9.96083 32.8252 10.5716 32.3745 11.0218C31.9238 11.4721 31.3128 11.725 30.6757 11.725C30.3607 11.725 30.0488 11.663 29.7577 11.5424C29.4667 11.4219 29.2023 11.2452 28.9795 11.0224C28.7568 10.7997 28.5801 10.5352 28.4595 10.2442C28.339 9.95318 28.2769 9.64126 28.2769 9.32625C28.2769 9.01124 28.339 8.69932 28.4595 8.40829C28.5801 8.11726 28.7568 7.85282 28.9795 7.63008C29.2023 7.40733 29.4667 7.23064 29.7577 7.11009C30.0488 6.98954 30.3607 6.9275 30.6757 6.9275C31.9969 6.9275 33.0794 8.0025 33.0794 9.32375Z" fill="#ED9E28"/>
</g>
<defs>
<clipPath id="clip0_2857_270">
<rect width="40" height="40" fill="white"/>
</clipPath>
</defs>
</svg>
