<svg width="40" height="40" viewBox="0 0 40 40" fill="none" xmlns="http://www.w3.org/2000/svg">
<g id="entypo-social:behance">
<path id="Vector" d="M16.144 18.6018C16.144 18.6018 19.928 18.3078 19.928 13.6838C19.928 9.05376 16.832 6.80176 12.908 6.80176H0V32.6538H12.908C12.908 32.6538 20.79 32.9118 20.79 25.0218C20.788 25.0198 21.132 18.6018 16.144 18.6018ZM5.688 11.3938H12.908C12.908 11.3938 14.664 11.3938 14.664 14.0818C14.664 16.7738 13.632 17.1638 12.46 17.1638H5.688V11.3938ZM12.542 28.0578H5.688V21.1478H12.908C12.908 21.1478 15.524 21.1118 15.524 24.6978C15.524 27.7218 13.57 28.0358 12.542 28.0578ZM31.298 13.3758C21.756 13.3758 21.764 23.3098 21.764 23.3098C21.764 23.3098 21.112 33.1918 31.298 33.1918C31.298 33.1918 39.784 33.6998 39.784 26.3178H35.42C35.42 26.3178 35.564 29.0998 31.444 29.0998C31.444 29.0998 27.076 29.4038 27.076 24.5998H39.922C39.924 24.5978 41.34 13.3758 31.298 13.3758ZM35.18 21.1478H27.032C27.032 21.1478 27.564 17.1638 31.396 17.1638C35.228 17.1638 35.18 21.1478 35.18 21.1478ZM36.194 8.31976H25.96V11.5078H36.194V8.31976Z" fill="#ED9E28"/>
</g>
</svg>
